<mxfile host="Electron" agent="Mozilla/5.0 (Windows NT 10.0; Win64; x64) AppleWebKit/537.36 (KHTML, like Gecko) draw.io/26.0.7 Chrome/128.0.6613.186 Electron/32.2.5 Safari/537.36" version="26.0.7" pages="2">
  <diagram name="페이지-1" id="vcdm0ymTV4vj8cVS2F0T">
    <mxGraphModel dx="2876" dy="2375" grid="1" gridSize="10" guides="1" tooltips="1" connect="1" arrows="1" fold="1" page="1" pageScale="1" pageWidth="827" pageHeight="1169" math="0" shadow="0">
      <root>
        <mxCell id="0" />
        <mxCell id="1" parent="0" />
        <mxCell id="W1404mS3XETOB29syWGj-5" value="펀딩 페이지" style="rounded=1;whiteSpace=wrap;html=1;arcSize=50;" vertex="1" parent="1">
          <mxGeometry x="350" y="-110" width="120" height="60" as="geometry" />
        </mxCell>
        <mxCell id="N206_3mTJXvAUxSQ0Mpn-3" style="edgeStyle=orthogonalEdgeStyle;rounded=0;orthogonalLoop=1;jettySize=auto;html=1;exitX=1;exitY=0.5;exitDx=0;exitDy=0;entryX=0.157;entryY=-0.025;entryDx=0;entryDy=0;entryPerimeter=0;" parent="1" source="N206_3mTJXvAUxSQ0Mpn-1" edge="1">
          <mxGeometry relative="1" as="geometry">
            <mxPoint x="368.84000000000015" y="468.49999999999955" as="targetPoint" />
          </mxGeometry>
        </mxCell>
        <mxCell id="6kFhQficbEtRCn-VQEsw-10" style="edgeStyle=orthogonalEdgeStyle;rounded=0;orthogonalLoop=1;jettySize=auto;html=1;entryX=0.5;entryY=1;entryDx=0;entryDy=0;" parent="1" source="6kFhQficbEtRCn-VQEsw-6" edge="1">
          <mxGeometry relative="1" as="geometry">
            <mxPoint x="620" y="530" as="targetPoint" />
          </mxGeometry>
        </mxCell>
        <mxCell id="EGz7P1Q1aY1t3WAdPLNM-36" style="edgeStyle=orthogonalEdgeStyle;rounded=0;orthogonalLoop=1;jettySize=auto;html=1;exitX=0.5;exitY=1;exitDx=0;exitDy=0;entryX=0.5;entryY=0;entryDx=0;entryDy=0;" parent="1" source="6kFhQficbEtRCn-VQEsw-6" edge="1">
          <mxGeometry relative="1" as="geometry">
            <mxPoint x="410" y="810" as="targetPoint" />
          </mxGeometry>
        </mxCell>
        <mxCell id="6kFhQficbEtRCn-VQEsw-6" value="로그인 유무" style="rhombus;whiteSpace=wrap;html=1;" parent="1" vertex="1">
          <mxGeometry x="350" y="590" width="120" height="80" as="geometry" />
        </mxCell>
        <mxCell id="6kFhQficbEtRCn-VQEsw-11" value="NO" style="text;html=1;align=center;verticalAlign=middle;resizable=0;points=[];autosize=1;strokeColor=none;fillColor=none;" parent="1" vertex="1">
          <mxGeometry x="460" y="600" width="40" height="30" as="geometry" />
        </mxCell>
        <mxCell id="6kFhQficbEtRCn-VQEsw-12" value="&lt;font&gt;로그인이 필요한 서비스입니다. 회원가입 후 다양한 프로젝트를 만나보세요!&lt;/font&gt;" style="rounded=1;whiteSpace=wrap;html=1;align=center;" parent="1" vertex="1">
          <mxGeometry x="540" y="550" width="170" height="60" as="geometry" />
        </mxCell>
        <mxCell id="6kFhQficbEtRCn-VQEsw-16" value="YES" style="text;html=1;align=center;verticalAlign=middle;resizable=0;points=[];autosize=1;strokeColor=none;fillColor=none;" parent="1" vertex="1">
          <mxGeometry x="360" y="710" width="50" height="30" as="geometry" />
        </mxCell>
        <mxCell id="EGz7P1Q1aY1t3WAdPLNM-5" value="" style="edgeStyle=orthogonalEdgeStyle;rounded=0;orthogonalLoop=1;jettySize=auto;html=1;" parent="1" source="W1404mS3XETOB29syWGj-1" edge="1">
          <mxGeometry relative="1" as="geometry">
            <mxPoint x="410" y="90" as="sourcePoint" />
            <mxPoint x="410" y="470" as="targetPoint" />
          </mxGeometry>
        </mxCell>
        <mxCell id="dezF3jb3ON0UpG9Igzy8-17" value="" style="edgeStyle=orthogonalEdgeStyle;rounded=0;orthogonalLoop=1;jettySize=auto;html=1;" parent="1" edge="1">
          <mxGeometry relative="1" as="geometry">
            <mxPoint x="350" y="50" as="sourcePoint" />
            <mxPoint x="200" y="50" as="targetPoint" />
          </mxGeometry>
        </mxCell>
        <mxCell id="dezF3jb3ON0UpG9Igzy8-26" value="" style="edgeStyle=orthogonalEdgeStyle;rounded=0;orthogonalLoop=1;jettySize=auto;html=1;exitX=0.45;exitY=-0.026;exitDx=0;exitDy=0;exitPerimeter=0;" parent="1" source="W1404mS3XETOB29syWGj-1" target="W1404mS3XETOB29syWGj-5" edge="1">
          <mxGeometry relative="1" as="geometry">
            <mxPoint x="410" y="10" as="sourcePoint" />
            <mxPoint x="410.0476190476188" y="-50" as="targetPoint" />
            <Array as="points">
              <mxPoint x="410" y="18" />
            </Array>
          </mxGeometry>
        </mxCell>
        <mxCell id="N206_3mTJXvAUxSQ0Mpn-49" value="" style="edgeStyle=orthogonalEdgeStyle;rounded=0;orthogonalLoop=1;jettySize=auto;html=1;" parent="1" edge="1">
          <mxGeometry relative="1" as="geometry">
            <mxPoint x="470" y="50" as="sourcePoint" />
            <mxPoint x="520" y="50" as="targetPoint" />
          </mxGeometry>
        </mxCell>
        <mxCell id="EGz7P1Q1aY1t3WAdPLNM-6" style="edgeStyle=orthogonalEdgeStyle;rounded=0;orthogonalLoop=1;jettySize=auto;html=1;entryX=0.5;entryY=0;entryDx=0;entryDy=0;" parent="1" target="6kFhQficbEtRCn-VQEsw-6" edge="1">
          <mxGeometry relative="1" as="geometry">
            <mxPoint x="410" y="530" as="sourcePoint" />
          </mxGeometry>
        </mxCell>
        <mxCell id="EGz7P1Q1aY1t3WAdPLNM-15" value="개인 정보 입력" style="shape=parallelogram;perimeter=parallelogramPerimeter;whiteSpace=wrap;html=1;fixedSize=1;" parent="1" vertex="1">
          <mxGeometry x="780" y="470" width="120" height="60" as="geometry" />
        </mxCell>
        <mxCell id="EGz7P1Q1aY1t3WAdPLNM-37" style="edgeStyle=orthogonalEdgeStyle;rounded=0;orthogonalLoop=1;jettySize=auto;html=1;entryX=1;entryY=0.5;entryDx=0;entryDy=0;exitX=0.51;exitY=0.833;exitDx=0;exitDy=0;exitPerimeter=0;" parent="1" source="EGz7P1Q1aY1t3WAdPLNM-17" target="6q0UX5Ta63x_VfpKH0MY-3" edge="1">
          <mxGeometry relative="1" as="geometry">
            <mxPoint x="484.5" y="850" as="targetPoint" />
            <Array as="points">
              <mxPoint x="1051" y="700" />
              <mxPoint x="1050" y="700" />
              <mxPoint x="1050" y="850" />
            </Array>
          </mxGeometry>
        </mxCell>
        <mxCell id="6q0UX5Ta63x_VfpKH0MY-6" style="edgeStyle=orthogonalEdgeStyle;rounded=0;orthogonalLoop=1;jettySize=auto;html=1;entryX=0.5;entryY=0;entryDx=0;entryDy=0;" edge="1" parent="1" source="EGz7P1Q1aY1t3WAdPLNM-17" target="6q0UX5Ta63x_VfpKH0MY-5">
          <mxGeometry relative="1" as="geometry">
            <mxPoint x="1140" y="540" as="targetPoint" />
          </mxGeometry>
        </mxCell>
        <mxCell id="EGz7P1Q1aY1t3WAdPLNM-17" value="가입 완료 문구" style="strokeWidth=2;html=1;shape=mxgraph.flowchart.document2;whiteSpace=wrap;size=0.25;" parent="1" vertex="1">
          <mxGeometry x="1000" y="470" width="100" height="60" as="geometry" />
        </mxCell>
        <mxCell id="EGz7P1Q1aY1t3WAdPLNM-18" style="edgeStyle=orthogonalEdgeStyle;rounded=0;orthogonalLoop=1;jettySize=auto;html=1;exitX=1;exitY=0.5;exitDx=0;exitDy=0;entryX=0;entryY=0.5;entryDx=0;entryDy=0;entryPerimeter=0;" parent="1" source="EGz7P1Q1aY1t3WAdPLNM-15" target="EGz7P1Q1aY1t3WAdPLNM-17" edge="1">
          <mxGeometry relative="1" as="geometry" />
        </mxCell>
        <mxCell id="EGz7P1Q1aY1t3WAdPLNM-28" style="edgeStyle=orthogonalEdgeStyle;rounded=0;orthogonalLoop=1;jettySize=auto;html=1;exitX=1;exitY=0.5;exitDx=0;exitDy=0;entryX=0;entryY=0.5;entryDx=0;entryDy=0;" parent="1" source="EGz7P1Q1aY1t3WAdPLNM-25" target="EGz7P1Q1aY1t3WAdPLNM-27" edge="1">
          <mxGeometry relative="1" as="geometry" />
        </mxCell>
        <mxCell id="dezF3jb3ON0UpG9Igzy8-34" style="edgeStyle=orthogonalEdgeStyle;rounded=0;orthogonalLoop=1;jettySize=auto;html=1;entryX=0.5;entryY=0;entryDx=0;entryDy=0;" parent="1" source="EGz7P1Q1aY1t3WAdPLNM-25" target="dezF3jb3ON0UpG9Igzy8-33" edge="1">
          <mxGeometry relative="1" as="geometry" />
        </mxCell>
        <mxCell id="EGz7P1Q1aY1t3WAdPLNM-25" value="프로젝트 만들기" style="rounded=0;whiteSpace=wrap;html=1;" parent="1" vertex="1">
          <mxGeometry x="700" y="20" width="120" height="60" as="geometry" />
        </mxCell>
        <mxCell id="EGz7P1Q1aY1t3WAdPLNM-31" style="edgeStyle=orthogonalEdgeStyle;rounded=0;orthogonalLoop=1;jettySize=auto;html=1;exitX=1;exitY=0.5;exitDx=0;exitDy=0;entryX=0;entryY=0.5;entryDx=0;entryDy=0;" parent="1" source="EGz7P1Q1aY1t3WAdPLNM-27" target="EGz7P1Q1aY1t3WAdPLNM-30" edge="1">
          <mxGeometry relative="1" as="geometry" />
        </mxCell>
        <mxCell id="EGz7P1Q1aY1t3WAdPLNM-34" value="" style="edgeStyle=orthogonalEdgeStyle;rounded=0;orthogonalLoop=1;jettySize=auto;html=1;" parent="1" source="EGz7P1Q1aY1t3WAdPLNM-27" edge="1">
          <mxGeometry relative="1" as="geometry">
            <mxPoint x="960" y="280" as="targetPoint" />
          </mxGeometry>
        </mxCell>
        <mxCell id="EGz7P1Q1aY1t3WAdPLNM-27" value="전문가 확인" style="rhombus;whiteSpace=wrap;html=1;" parent="1" vertex="1">
          <mxGeometry x="900" y="10" width="120" height="80" as="geometry" />
        </mxCell>
        <mxCell id="N206_3mTJXvAUxSQ0Mpn-30" style="edgeStyle=orthogonalEdgeStyle;rounded=0;orthogonalLoop=1;jettySize=auto;html=1;exitX=1;exitY=0.5;exitDx=0;exitDy=0;entryX=0;entryY=0.5;entryDx=0;entryDy=0;" parent="1" source="EGz7P1Q1aY1t3WAdPLNM-30" target="N206_3mTJXvAUxSQ0Mpn-29" edge="1">
          <mxGeometry relative="1" as="geometry" />
        </mxCell>
        <mxCell id="EGz7P1Q1aY1t3WAdPLNM-30" value="프로젝트 작성&amp;nbsp;&lt;div&gt;및 등록&lt;/div&gt;" style="shape=parallelogram;perimeter=parallelogramPerimeter;whiteSpace=wrap;html=1;fixedSize=1;" parent="1" vertex="1">
          <mxGeometry x="1110" y="20" width="120" height="60" as="geometry" />
        </mxCell>
        <mxCell id="EGz7P1Q1aY1t3WAdPLNM-32" value="YES" style="text;html=1;align=center;verticalAlign=middle;resizable=0;points=[];autosize=1;strokeColor=none;fillColor=none;" parent="1" vertex="1">
          <mxGeometry x="1030" y="20" width="50" height="30" as="geometry" />
        </mxCell>
        <mxCell id="EGz7P1Q1aY1t3WAdPLNM-42" style="edgeStyle=orthogonalEdgeStyle;rounded=0;orthogonalLoop=1;jettySize=auto;html=1;exitX=1;exitY=0.5;exitDx=0;exitDy=0;entryX=0;entryY=0.5;entryDx=0;entryDy=0;" parent="1" source="6q0UX5Ta63x_VfpKH0MY-14" target="EGz7P1Q1aY1t3WAdPLNM-41" edge="1">
          <mxGeometry relative="1" as="geometry">
            <mxPoint x="1030" y="310" as="sourcePoint" />
          </mxGeometry>
        </mxCell>
        <mxCell id="EGz7P1Q1aY1t3WAdPLNM-35" value="NO" style="text;html=1;align=center;verticalAlign=middle;resizable=0;points=[];autosize=1;strokeColor=none;fillColor=none;" parent="1" vertex="1">
          <mxGeometry x="920" y="100" width="40" height="30" as="geometry" />
        </mxCell>
        <mxCell id="dezF3jb3ON0UpG9Igzy8-11" value="" style="edgeStyle=orthogonalEdgeStyle;rounded=0;orthogonalLoop=1;jettySize=auto;html=1;entryX=0.417;entryY=1.033;entryDx=0;entryDy=0;entryPerimeter=0;exitX=0.5;exitY=1;exitDx=0;exitDy=0;" parent="1" source="EGz7P1Q1aY1t3WAdPLNM-38" edge="1">
          <mxGeometry relative="1" as="geometry">
            <mxPoint x="1850" y="40" as="sourcePoint" />
            <mxPoint x="120.03999999999996" y="81.98000000000002" as="targetPoint" />
            <Array as="points">
              <mxPoint x="1910" y="51" />
              <mxPoint x="1920" y="51" />
              <mxPoint x="1920" y="960" />
              <mxPoint x="120" y="960" />
            </Array>
          </mxGeometry>
        </mxCell>
        <mxCell id="N206_3mTJXvAUxSQ0Mpn-51" style="edgeStyle=orthogonalEdgeStyle;rounded=0;orthogonalLoop=1;jettySize=auto;html=1;exitX=0.5;exitY=0;exitDx=0;exitDy=0;entryX=0.75;entryY=0;entryDx=0;entryDy=0;" parent="1" source="EGz7P1Q1aY1t3WAdPLNM-38" target="W1404mS3XETOB29syWGj-3" edge="1">
          <mxGeometry relative="1" as="geometry">
            <mxPoint x="650" y="-10" as="targetPoint" />
          </mxGeometry>
        </mxCell>
        <mxCell id="EGz7P1Q1aY1t3WAdPLNM-38" value="팀원 모집" style="rhombus;whiteSpace=wrap;html=1;" parent="1" vertex="1">
          <mxGeometry x="1850" y="10" width="120" height="80" as="geometry" />
        </mxCell>
        <mxCell id="EGz7P1Q1aY1t3WAdPLNM-44" value="" style="edgeStyle=orthogonalEdgeStyle;rounded=0;orthogonalLoop=1;jettySize=auto;html=1;" parent="1" source="EGz7P1Q1aY1t3WAdPLNM-41" edge="1">
          <mxGeometry relative="1" as="geometry">
            <mxPoint x="1310" y="310" as="targetPoint" />
          </mxGeometry>
        </mxCell>
        <mxCell id="EGz7P1Q1aY1t3WAdPLNM-41" value="전문가 정보 등록" style="shape=parallelogram;perimeter=parallelogramPerimeter;whiteSpace=wrap;html=1;fixedSize=1;" parent="1" vertex="1">
          <mxGeometry x="1110" y="280" width="120" height="60" as="geometry" />
        </mxCell>
        <mxCell id="EGz7P1Q1aY1t3WAdPLNM-48" style="edgeStyle=orthogonalEdgeStyle;rounded=0;orthogonalLoop=1;jettySize=auto;html=1;exitX=0.5;exitY=1;exitDx=0;exitDy=0;entryX=0.5;entryY=0;entryDx=0;entryDy=0;" parent="1" source="EGz7P1Q1aY1t3WAdPLNM-45" target="EGz7P1Q1aY1t3WAdPLNM-47" edge="1">
          <mxGeometry relative="1" as="geometry" />
        </mxCell>
        <mxCell id="dezF3jb3ON0UpG9Igzy8-2" value="" style="edgeStyle=orthogonalEdgeStyle;rounded=0;orthogonalLoop=1;jettySize=auto;html=1;" parent="1" source="EGz7P1Q1aY1t3WAdPLNM-45" target="dezF3jb3ON0UpG9Igzy8-1" edge="1">
          <mxGeometry relative="1" as="geometry" />
        </mxCell>
        <mxCell id="EGz7P1Q1aY1t3WAdPLNM-45" value="전문가 인증 심사" style="rhombus;whiteSpace=wrap;html=1;" parent="1" vertex="1">
          <mxGeometry x="1310" y="270" width="120" height="80" as="geometry" />
        </mxCell>
        <mxCell id="EGz7P1Q1aY1t3WAdPLNM-46" value="&lt;font&gt;전문가 전환 신청을 하지 않으면 프로젝트 개설이 불가능합니다.&amp;nbsp;&lt;/font&gt;" style="rounded=1;whiteSpace=wrap;html=1;align=center;" parent="1" vertex="1">
          <mxGeometry x="870" y="150" width="180" height="60" as="geometry" />
        </mxCell>
        <mxCell id="N206_3mTJXvAUxSQ0Mpn-12" value="" style="edgeStyle=orthogonalEdgeStyle;rounded=0;orthogonalLoop=1;jettySize=auto;html=1;entryX=0.5;entryY=0;entryDx=0;entryDy=0;" parent="1" source="EGz7P1Q1aY1t3WAdPLNM-47" target="6q0UX5Ta63x_VfpKH0MY-7" edge="1">
          <mxGeometry relative="1" as="geometry">
            <mxPoint x="1370" y="590" as="targetPoint" />
          </mxGeometry>
        </mxCell>
        <mxCell id="EGz7P1Q1aY1t3WAdPLNM-47" value="승인 완료 문구" style="shape=document;whiteSpace=wrap;html=1;boundedLbl=1;" parent="1" vertex="1">
          <mxGeometry x="1310" y="450" width="120" height="80" as="geometry" />
        </mxCell>
        <mxCell id="EGz7P1Q1aY1t3WAdPLNM-53" style="edgeStyle=orthogonalEdgeStyle;rounded=0;orthogonalLoop=1;jettySize=auto;html=1;entryX=0.417;entryY=1;entryDx=0;entryDy=0;entryPerimeter=0;" parent="1" source="EGz7P1Q1aY1t3WAdPLNM-51" target="EGz7P1Q1aY1t3WAdPLNM-30" edge="1">
          <mxGeometry relative="1" as="geometry">
            <mxPoint x="1350" y="230" as="targetPoint" />
            <Array as="points">
              <mxPoint x="1490" y="760" />
              <mxPoint x="1490" y="230" />
              <mxPoint x="1160" y="230" />
            </Array>
          </mxGeometry>
        </mxCell>
        <mxCell id="EGz7P1Q1aY1t3WAdPLNM-55" style="edgeStyle=orthogonalEdgeStyle;rounded=0;orthogonalLoop=1;jettySize=auto;html=1;entryX=0.764;entryY=0.913;entryDx=0;entryDy=0;entryPerimeter=0;" parent="1" source="EGz7P1Q1aY1t3WAdPLNM-51" edge="1">
          <mxGeometry relative="1" as="geometry">
            <mxPoint x="441.67999999999984" y="83.03999999999996" as="targetPoint" />
            <Array as="points">
              <mxPoint x="1220" y="760" />
              <mxPoint x="1220" y="380" />
              <mxPoint x="442" y="380" />
            </Array>
          </mxGeometry>
        </mxCell>
        <mxCell id="EGz7P1Q1aY1t3WAdPLNM-51" value="프로젝트 생성 유무" style="rhombus;whiteSpace=wrap;html=1;" parent="1" vertex="1">
          <mxGeometry x="1310" y="720" width="120" height="80" as="geometry" />
        </mxCell>
        <mxCell id="EGz7P1Q1aY1t3WAdPLNM-54" value="YES" style="text;html=1;align=center;verticalAlign=middle;resizable=0;points=[];autosize=1;strokeColor=none;fillColor=none;" parent="1" vertex="1">
          <mxGeometry x="1415" y="730" width="50" height="30" as="geometry" />
        </mxCell>
        <mxCell id="EGz7P1Q1aY1t3WAdPLNM-56" value="NO" style="text;html=1;align=center;verticalAlign=middle;resizable=0;points=[];autosize=1;strokeColor=none;fillColor=none;" parent="1" vertex="1">
          <mxGeometry x="1270" y="730" width="40" height="30" as="geometry" />
        </mxCell>
        <mxCell id="dezF3jb3ON0UpG9Igzy8-7" style="edgeStyle=orthogonalEdgeStyle;rounded=0;orthogonalLoop=1;jettySize=auto;html=1;entryX=0.208;entryY=1;entryDx=0;entryDy=0;entryPerimeter=0;" parent="1" source="dezF3jb3ON0UpG9Igzy8-1" target="W1404mS3XETOB29syWGj-1" edge="1">
          <mxGeometry relative="1" as="geometry">
            <mxPoint x="377.96000000000004" y="87.36000000000013" as="targetPoint" />
            <Array as="points">
              <mxPoint x="1834" y="920" />
              <mxPoint x="330" y="920" />
              <mxPoint x="330" y="130" />
              <mxPoint x="378" y="130" />
            </Array>
          </mxGeometry>
        </mxCell>
        <mxCell id="dezF3jb3ON0UpG9Igzy8-1" value="반려 알림 발송" style="whiteSpace=wrap;html=1;" parent="1" vertex="1">
          <mxGeometry x="1774" y="280" width="120" height="60" as="geometry" />
        </mxCell>
        <mxCell id="dezF3jb3ON0UpG9Igzy8-3" value="YES" style="text;html=1;align=center;verticalAlign=middle;resizable=0;points=[];autosize=1;strokeColor=none;fillColor=none;" parent="1" vertex="1">
          <mxGeometry x="1320" y="345" width="50" height="30" as="geometry" />
        </mxCell>
        <mxCell id="dezF3jb3ON0UpG9Igzy8-4" value="YES" style="text;html=1;align=center;verticalAlign=middle;resizable=0;points=[];autosize=1;strokeColor=none;fillColor=none;" parent="1" vertex="1">
          <mxGeometry x="1910" y="90" width="50" height="30" as="geometry" />
        </mxCell>
        <mxCell id="dezF3jb3ON0UpG9Igzy8-5" value="NO" style="text;html=1;align=center;verticalAlign=middle;resizable=0;points=[];autosize=1;strokeColor=none;fillColor=none;" parent="1" vertex="1">
          <mxGeometry x="1425" y="280" width="40" height="30" as="geometry" />
        </mxCell>
        <mxCell id="dezF3jb3ON0UpG9Igzy8-6" value="&lt;font&gt;전문가 인증 심사가 반려되었습니다. 입력 정보를 다시 확인한 후&amp;nbsp;&lt;/font&gt;&lt;div&gt;&lt;font&gt;신청해주세요.&lt;/font&gt;&lt;/div&gt;" style="rounded=1;whiteSpace=wrap;html=1;align=center;" parent="1" vertex="1">
          <mxGeometry x="1520" y="280" width="200" height="60" as="geometry" />
        </mxCell>
        <mxCell id="dezF3jb3ON0UpG9Igzy8-20" value="" style="edgeStyle=orthogonalEdgeStyle;rounded=0;orthogonalLoop=1;jettySize=auto;html=1;" parent="1" target="dezF3jb3ON0UpG9Igzy8-19" edge="1">
          <mxGeometry relative="1" as="geometry">
            <mxPoint x="80" y="50" as="sourcePoint" />
          </mxGeometry>
        </mxCell>
        <mxCell id="dezF3jb3ON0UpG9Igzy8-22" value="" style="edgeStyle=orthogonalEdgeStyle;rounded=0;orthogonalLoop=1;jettySize=auto;html=1;" parent="1" target="dezF3jb3ON0UpG9Igzy8-21" edge="1">
          <mxGeometry relative="1" as="geometry">
            <mxPoint x="80" y="50" as="sourcePoint" />
          </mxGeometry>
        </mxCell>
        <mxCell id="dezF3jb3ON0UpG9Igzy8-28" value="" style="edgeStyle=orthogonalEdgeStyle;rounded=0;orthogonalLoop=1;jettySize=auto;html=1;" parent="1" target="dezF3jb3ON0UpG9Igzy8-27" edge="1">
          <mxGeometry relative="1" as="geometry">
            <mxPoint x="140" y="20" as="sourcePoint" />
          </mxGeometry>
        </mxCell>
        <mxCell id="dezF3jb3ON0UpG9Igzy8-19" value="검색" style="whiteSpace=wrap;html=1;" parent="1" vertex="1">
          <mxGeometry x="-230" y="20" width="120" height="60" as="geometry" />
        </mxCell>
        <mxCell id="N206_3mTJXvAUxSQ0Mpn-2" style="edgeStyle=orthogonalEdgeStyle;rounded=0;orthogonalLoop=1;jettySize=auto;html=1;entryX=0.5;entryY=0;entryDx=0;entryDy=0;" parent="1" source="dezF3jb3ON0UpG9Igzy8-21" target="N206_3mTJXvAUxSQ0Mpn-1" edge="1">
          <mxGeometry relative="1" as="geometry" />
        </mxCell>
        <mxCell id="dezF3jb3ON0UpG9Igzy8-21" value="글 작성" style="whiteSpace=wrap;html=1;" parent="1" vertex="1">
          <mxGeometry x="-60" y="180" width="120" height="60" as="geometry" />
        </mxCell>
        <mxCell id="NGFAzXa_t9kIVIbVqIeF-2" style="edgeStyle=orthogonalEdgeStyle;rounded=0;orthogonalLoop=1;jettySize=auto;html=1;entryX=0.5;entryY=1;entryDx=0;entryDy=0;" parent="1" target="NGFAzXa_t9kIVIbVqIeF-1" edge="1">
          <mxGeometry relative="1" as="geometry">
            <mxPoint x="410" y="-110" as="sourcePoint" />
          </mxGeometry>
        </mxCell>
        <mxCell id="dezF3jb3ON0UpG9Igzy8-30" style="edgeStyle=orthogonalEdgeStyle;rounded=0;orthogonalLoop=1;jettySize=auto;html=1;exitX=0.5;exitY=0;exitDx=0;exitDy=0;entryX=0.5;entryY=1;entryDx=0;entryDy=0;" parent="1" source="dezF3jb3ON0UpG9Igzy8-27" target="dezF3jb3ON0UpG9Igzy8-29" edge="1">
          <mxGeometry relative="1" as="geometry" />
        </mxCell>
        <mxCell id="dezF3jb3ON0UpG9Igzy8-27" value="팀원 모집 글 작성" style="whiteSpace=wrap;html=1;" parent="1" vertex="1">
          <mxGeometry x="80" y="-110" width="120" height="60" as="geometry" />
        </mxCell>
        <mxCell id="dezF3jb3ON0UpG9Igzy8-31" style="edgeStyle=orthogonalEdgeStyle;rounded=0;orthogonalLoop=1;jettySize=auto;html=1;exitX=1;exitY=0.5;exitDx=0;exitDy=0;entryX=-0.015;entryY=0.683;entryDx=0;entryDy=0;entryPerimeter=0;" parent="1" source="dezF3jb3ON0UpG9Igzy8-29" edge="1">
          <mxGeometry relative="1" as="geometry">
            <mxPoint x="349.9700000000001" y="500.98" as="targetPoint" />
            <mxPoint x="187.27" y="-230" as="sourcePoint" />
            <Array as="points">
              <mxPoint x="228" y="-220" />
              <mxPoint x="228" y="500" />
              <mxPoint x="350" y="500" />
            </Array>
          </mxGeometry>
        </mxCell>
        <mxCell id="N206_3mTJXvAUxSQ0Mpn-18" value="" style="edgeStyle=orthogonalEdgeStyle;rounded=0;orthogonalLoop=1;jettySize=auto;html=1;" parent="1" source="dezF3jb3ON0UpG9Igzy8-29" edge="1">
          <mxGeometry relative="1" as="geometry">
            <mxPoint x="140" y="-350" as="targetPoint" />
          </mxGeometry>
        </mxCell>
        <mxCell id="dezF3jb3ON0UpG9Igzy8-29" value="로그인 유무" style="rhombus;whiteSpace=wrap;html=1;" parent="1" vertex="1">
          <mxGeometry x="80" y="-260" width="120" height="80" as="geometry" />
        </mxCell>
        <mxCell id="dezF3jb3ON0UpG9Igzy8-32" value="NO" style="text;html=1;align=center;verticalAlign=middle;resizable=0;points=[];autosize=1;strokeColor=none;fillColor=none;" parent="1" vertex="1">
          <mxGeometry x="190" y="-250" width="40" height="30" as="geometry" />
        </mxCell>
        <mxCell id="dezF3jb3ON0UpG9Igzy8-38" style="edgeStyle=orthogonalEdgeStyle;rounded=0;orthogonalLoop=1;jettySize=auto;html=1;" parent="1" source="dezF3jb3ON0UpG9Igzy8-33" edge="1">
          <mxGeometry relative="1" as="geometry">
            <mxPoint x="850" y="50" as="targetPoint" />
          </mxGeometry>
        </mxCell>
        <mxCell id="dezF3jb3ON0UpG9Igzy8-33" value="로그인 유무" style="rhombus;whiteSpace=wrap;html=1;" parent="1" vertex="1">
          <mxGeometry x="700" y="140" width="120" height="80" as="geometry" />
        </mxCell>
        <mxCell id="dezF3jb3ON0UpG9Igzy8-35" style="edgeStyle=orthogonalEdgeStyle;rounded=0;orthogonalLoop=1;jettySize=auto;html=1;entryX=1;entryY=0.25;entryDx=0;entryDy=0;" parent="1" source="dezF3jb3ON0UpG9Igzy8-33" edge="1">
          <mxGeometry relative="1" as="geometry">
            <mxPoint x="470" y="485" as="targetPoint" />
            <Array as="points">
              <mxPoint x="520" y="180" />
              <mxPoint x="520" y="468" />
              <mxPoint x="470" y="468" />
            </Array>
          </mxGeometry>
        </mxCell>
        <mxCell id="dezF3jb3ON0UpG9Igzy8-36" value="NO" style="text;html=1;align=center;verticalAlign=middle;resizable=0;points=[];autosize=1;strokeColor=none;fillColor=none;" parent="1" vertex="1">
          <mxGeometry x="560" y="150" width="40" height="30" as="geometry" />
        </mxCell>
        <mxCell id="dezF3jb3ON0UpG9Igzy8-37" value="&lt;font&gt;로그인이 필요한 서비스입니다. 회원가입 후 다양한 프로젝트를 만나보세요!&lt;/font&gt;" style="rounded=1;whiteSpace=wrap;html=1;align=center;" parent="1" vertex="1">
          <mxGeometry x="450" y="240" width="170" height="60" as="geometry" />
        </mxCell>
        <mxCell id="dezF3jb3ON0UpG9Igzy8-39" value="YES" style="text;html=1;align=center;verticalAlign=middle;resizable=0;points=[];autosize=1;strokeColor=none;fillColor=none;" parent="1" vertex="1">
          <mxGeometry x="800" y="149" width="50" height="30" as="geometry" />
        </mxCell>
        <mxCell id="dezF3jb3ON0UpG9Igzy8-41" value="&lt;font&gt;로그인이 필요한 서비스입니다. 회원가입 후 다양한 프로젝트를 만나보세요!&lt;/font&gt;" style="rounded=1;whiteSpace=wrap;html=1;align=center;" parent="1" vertex="1">
          <mxGeometry x="140" y="330" width="170" height="60" as="geometry" />
        </mxCell>
        <mxCell id="N206_3mTJXvAUxSQ0Mpn-7" value="" style="edgeStyle=orthogonalEdgeStyle;rounded=0;orthogonalLoop=1;jettySize=auto;html=1;" parent="1" source="N206_3mTJXvAUxSQ0Mpn-1" edge="1">
          <mxGeometry relative="1" as="geometry">
            <mxPoint y="490" as="targetPoint" />
          </mxGeometry>
        </mxCell>
        <mxCell id="N206_3mTJXvAUxSQ0Mpn-1" value="로그인 유무" style="rhombus;whiteSpace=wrap;html=1;" parent="1" vertex="1">
          <mxGeometry x="-60" y="320" width="120" height="80" as="geometry" />
        </mxCell>
        <mxCell id="N206_3mTJXvAUxSQ0Mpn-5" value="NO" style="text;html=1;align=center;verticalAlign=middle;resizable=0;points=[];autosize=1;strokeColor=none;fillColor=none;" parent="1" vertex="1">
          <mxGeometry x="60" y="320" width="40" height="30" as="geometry" />
        </mxCell>
        <mxCell id="N206_3mTJXvAUxSQ0Mpn-10" style="edgeStyle=orthogonalEdgeStyle;rounded=0;orthogonalLoop=1;jettySize=auto;html=1;exitX=0.5;exitY=1;exitDx=0;exitDy=0;entryX=0.5;entryY=0;entryDx=0;entryDy=0;" parent="1" target="N206_3mTJXvAUxSQ0Mpn-9" edge="1">
          <mxGeometry relative="1" as="geometry">
            <mxPoint y="550" as="sourcePoint" />
          </mxGeometry>
        </mxCell>
        <mxCell id="N206_3mTJXvAUxSQ0Mpn-8" value="YES" style="text;html=1;align=center;verticalAlign=middle;resizable=0;points=[];autosize=1;strokeColor=none;fillColor=none;" parent="1" vertex="1">
          <mxGeometry y="410" width="50" height="30" as="geometry" />
        </mxCell>
        <mxCell id="6q0UX5Ta63x_VfpKH0MY-19" style="edgeStyle=orthogonalEdgeStyle;rounded=0;orthogonalLoop=1;jettySize=auto;html=1;entryX=0.5;entryY=0;entryDx=0;entryDy=0;" edge="1" parent="1" source="N206_3mTJXvAUxSQ0Mpn-9" target="6q0UX5Ta63x_VfpKH0MY-18">
          <mxGeometry relative="1" as="geometry">
            <Array as="points">
              <mxPoint y="780" />
            </Array>
          </mxGeometry>
        </mxCell>
        <mxCell id="N206_3mTJXvAUxSQ0Mpn-9" value="작성 완료 문구" style="shape=document;whiteSpace=wrap;html=1;boundedLbl=1;" parent="1" vertex="1">
          <mxGeometry x="-60" y="620" width="120" height="80" as="geometry" />
        </mxCell>
        <mxCell id="N206_3mTJXvAUxSQ0Mpn-14" style="edgeStyle=orthogonalEdgeStyle;rounded=0;orthogonalLoop=1;jettySize=auto;html=1;exitX=0.5;exitY=1;exitDx=0;exitDy=0;entryX=0.5;entryY=0;entryDx=0;entryDy=0;" parent="1" source="6q0UX5Ta63x_VfpKH0MY-7" target="EGz7P1Q1aY1t3WAdPLNM-51" edge="1">
          <mxGeometry relative="1" as="geometry">
            <mxPoint x="1370" y="670" as="sourcePoint" />
          </mxGeometry>
        </mxCell>
        <mxCell id="N206_3mTJXvAUxSQ0Mpn-20" style="edgeStyle=orthogonalEdgeStyle;rounded=0;orthogonalLoop=1;jettySize=auto;html=1;" parent="1" target="N206_3mTJXvAUxSQ0Mpn-19" edge="1">
          <mxGeometry relative="1" as="geometry">
            <mxPoint x="140" y="-410" as="sourcePoint" />
          </mxGeometry>
        </mxCell>
        <mxCell id="N206_3mTJXvAUxSQ0Mpn-24" style="edgeStyle=orthogonalEdgeStyle;rounded=0;orthogonalLoop=1;jettySize=auto;html=1;" parent="1" source="N206_3mTJXvAUxSQ0Mpn-19" edge="1">
          <mxGeometry relative="1" as="geometry">
            <mxPoint x="140" y="-640" as="targetPoint" />
          </mxGeometry>
        </mxCell>
        <mxCell id="N206_3mTJXvAUxSQ0Mpn-19" value="작성 완료 문구" style="shape=document;whiteSpace=wrap;html=1;boundedLbl=1;" parent="1" vertex="1">
          <mxGeometry x="80" y="-560" width="120" height="80" as="geometry" />
        </mxCell>
        <mxCell id="N206_3mTJXvAUxSQ0Mpn-21" value="YES" style="text;html=1;align=center;verticalAlign=middle;resizable=0;points=[];autosize=1;strokeColor=none;fillColor=none;" parent="1" vertex="1">
          <mxGeometry x="85" y="-290" width="50" height="30" as="geometry" />
        </mxCell>
        <mxCell id="N206_3mTJXvAUxSQ0Mpn-41" style="edgeStyle=orthogonalEdgeStyle;rounded=0;orthogonalLoop=1;jettySize=auto;html=1;entryX=1;entryY=0.5;entryDx=0;entryDy=0;exitX=-0.012;exitY=0.327;exitDx=0;exitDy=0;exitPerimeter=0;" parent="1" source="6q0UX5Ta63x_VfpKH0MY-1" target="N206_3mTJXvAUxSQ0Mpn-36" edge="1">
          <mxGeometry relative="1" as="geometry">
            <mxPoint x="65.5" y="-680" as="sourcePoint" />
            <Array as="points">
              <mxPoint x="79" y="-679" />
              <mxPoint x="20" y="-679" />
            </Array>
          </mxGeometry>
        </mxCell>
        <mxCell id="N206_3mTJXvAUxSQ0Mpn-25" value="글 카테고리 선택&amp;nbsp;&lt;div&gt;및 작성&lt;/div&gt;" style="shape=parallelogram;perimeter=parallelogramPerimeter;whiteSpace=wrap;html=1;fixedSize=1;" parent="1" vertex="1">
          <mxGeometry x="-69" y="490" width="140" height="70" as="geometry" />
        </mxCell>
        <mxCell id="N206_3mTJXvAUxSQ0Mpn-26" value="프로젝트 팀 모집 글 작성" style="shape=parallelogram;perimeter=parallelogramPerimeter;whiteSpace=wrap;html=1;fixedSize=1;" parent="1" vertex="1">
          <mxGeometry x="70" y="-420" width="140" height="70" as="geometry" />
        </mxCell>
        <mxCell id="N206_3mTJXvAUxSQ0Mpn-29" value="작성 완료 문구" style="shape=document;whiteSpace=wrap;html=1;boundedLbl=1;" parent="1" vertex="1">
          <mxGeometry x="1321" y="10" width="120" height="80" as="geometry" />
        </mxCell>
        <mxCell id="N206_3mTJXvAUxSQ0Mpn-42" style="edgeStyle=orthogonalEdgeStyle;rounded=0;orthogonalLoop=1;jettySize=auto;html=1;entryX=0.5;entryY=0;entryDx=0;entryDy=0;" parent="1" source="N206_3mTJXvAUxSQ0Mpn-36" target="EGz7P1Q1aY1t3WAdPLNM-25" edge="1">
          <mxGeometry relative="1" as="geometry">
            <mxPoint x="700" y="-520" as="targetPoint" />
            <Array as="points">
              <mxPoint x="-60" y="-770" />
              <mxPoint x="760" y="-770" />
            </Array>
          </mxGeometry>
        </mxCell>
        <mxCell id="N206_3mTJXvAUxSQ0Mpn-43" style="edgeStyle=orthogonalEdgeStyle;rounded=0;orthogonalLoop=1;jettySize=auto;html=1;exitX=0.5;exitY=1;exitDx=0;exitDy=0;" parent="1" source="N206_3mTJXvAUxSQ0Mpn-36" edge="1">
          <mxGeometry relative="1" as="geometry">
            <mxPoint x="100" y="20" as="targetPoint" />
            <Array as="points">
              <mxPoint x="-60" y="-320" />
              <mxPoint x="60" y="-320" />
              <mxPoint x="60" />
              <mxPoint x="100" />
            </Array>
          </mxGeometry>
        </mxCell>
        <mxCell id="N206_3mTJXvAUxSQ0Mpn-36" value="프로젝트 생성 유무" style="rhombus;whiteSpace=wrap;html=1;" parent="1" vertex="1">
          <mxGeometry x="-120" y="-720" width="120" height="80" as="geometry" />
        </mxCell>
        <mxCell id="N206_3mTJXvAUxSQ0Mpn-39" value="YES" style="text;html=1;align=center;verticalAlign=middle;resizable=0;points=[];autosize=1;strokeColor=none;fillColor=none;" parent="1" vertex="1">
          <mxGeometry x="-69" y="-750" width="50" height="30" as="geometry" />
        </mxCell>
        <mxCell id="N206_3mTJXvAUxSQ0Mpn-44" value="NO" style="text;html=1;align=center;verticalAlign=middle;resizable=0;points=[];autosize=1;strokeColor=none;fillColor=none;" parent="1" vertex="1">
          <mxGeometry x="-64" y="-640" width="40" height="30" as="geometry" />
        </mxCell>
        <mxCell id="N206_3mTJXvAUxSQ0Mpn-50" style="edgeStyle=orthogonalEdgeStyle;rounded=0;orthogonalLoop=1;jettySize=auto;html=1;exitX=1;exitY=0.5;exitDx=0;exitDy=0;entryX=0;entryY=0.5;entryDx=0;entryDy=0;" parent="1" source="W1404mS3XETOB29syWGj-3" target="EGz7P1Q1aY1t3WAdPLNM-25" edge="1">
          <mxGeometry relative="1" as="geometry">
            <mxPoint x="640" y="50" as="sourcePoint" />
          </mxGeometry>
        </mxCell>
        <mxCell id="N206_3mTJXvAUxSQ0Mpn-52" value="NO" style="text;html=1;align=center;verticalAlign=middle;resizable=0;points=[];autosize=1;strokeColor=none;fillColor=none;" parent="1" vertex="1">
          <mxGeometry x="1870" y="-40" width="40" height="30" as="geometry" />
        </mxCell>
        <mxCell id="NGFAzXa_t9kIVIbVqIeF-1" value="후원할 펀딩 검색" style="shape=parallelogram;perimeter=parallelogramPerimeter;whiteSpace=wrap;html=1;fixedSize=1;" parent="1" vertex="1">
          <mxGeometry x="340" y="-255" width="140" height="70" as="geometry" />
        </mxCell>
        <mxCell id="NGFAzXa_t9kIVIbVqIeF-7" value="" style="edgeStyle=orthogonalEdgeStyle;rounded=0;orthogonalLoop=1;jettySize=auto;html=1;" parent="1" source="NGFAzXa_t9kIVIbVqIeF-4" edge="1">
          <mxGeometry relative="1" as="geometry">
            <mxPoint x="410" y="-500" as="targetPoint" />
          </mxGeometry>
        </mxCell>
        <mxCell id="NGFAzXa_t9kIVIbVqIeF-46" style="edgeStyle=orthogonalEdgeStyle;rounded=0;orthogonalLoop=1;jettySize=auto;html=1;entryX=0.75;entryY=0;entryDx=0;entryDy=0;" parent="1" source="NGFAzXa_t9kIVIbVqIeF-4" edge="1">
          <mxGeometry relative="1" as="geometry">
            <mxPoint x="440" y="-110" as="targetPoint" />
            <Array as="points">
              <mxPoint x="570" y="-370" />
              <mxPoint x="570" y="-130" />
              <mxPoint x="440" y="-130" />
            </Array>
          </mxGeometry>
        </mxCell>
        <mxCell id="NGFAzXa_t9kIVIbVqIeF-4" value="펀딩 DB" style="shape=cylinder3;whiteSpace=wrap;html=1;boundedLbl=1;backgroundOutline=1;size=15;" parent="1" vertex="1">
          <mxGeometry x="350" y="-410" width="120" height="80" as="geometry" />
        </mxCell>
        <mxCell id="NGFAzXa_t9kIVIbVqIeF-5" style="edgeStyle=orthogonalEdgeStyle;rounded=0;orthogonalLoop=1;jettySize=auto;html=1;entryX=0.5;entryY=1;entryDx=0;entryDy=0;entryPerimeter=0;" parent="1" source="NGFAzXa_t9kIVIbVqIeF-1" target="NGFAzXa_t9kIVIbVqIeF-4" edge="1">
          <mxGeometry relative="1" as="geometry" />
        </mxCell>
        <mxCell id="NGFAzXa_t9kIVIbVqIeF-9" style="edgeStyle=orthogonalEdgeStyle;rounded=0;orthogonalLoop=1;jettySize=auto;html=1;entryX=0.5;entryY=1;entryDx=0;entryDy=0;" parent="1" target="NGFAzXa_t9kIVIbVqIeF-8" edge="1">
          <mxGeometry relative="1" as="geometry">
            <mxPoint x="410" y="-560" as="sourcePoint" />
          </mxGeometry>
        </mxCell>
        <mxCell id="NGFAzXa_t9kIVIbVqIeF-15" value="" style="edgeStyle=orthogonalEdgeStyle;rounded=0;orthogonalLoop=1;jettySize=auto;html=1;" parent="1" source="NGFAzXa_t9kIVIbVqIeF-8" edge="1">
          <mxGeometry relative="1" as="geometry">
            <mxPoint x="550" y="-680" as="targetPoint" />
          </mxGeometry>
        </mxCell>
        <mxCell id="NGFAzXa_t9kIVIbVqIeF-21" style="edgeStyle=orthogonalEdgeStyle;rounded=0;orthogonalLoop=1;jettySize=auto;html=1;entryX=0;entryY=0.5;entryDx=0;entryDy=0;" parent="1" source="NGFAzXa_t9kIVIbVqIeF-8" edge="1">
          <mxGeometry relative="1" as="geometry">
            <mxPoint x="350" y="-80" as="targetPoint" />
            <Array as="points">
              <mxPoint x="311" y="-680" />
              <mxPoint x="311" y="-80" />
            </Array>
          </mxGeometry>
        </mxCell>
        <mxCell id="NGFAzXa_t9kIVIbVqIeF-8" value="후원 진행 유무" style="rhombus;whiteSpace=wrap;html=1;" parent="1" vertex="1">
          <mxGeometry x="350" y="-720" width="120" height="80" as="geometry" />
        </mxCell>
        <mxCell id="NGFAzXa_t9kIVIbVqIeF-11" value="NO" style="text;html=1;align=center;verticalAlign=middle;resizable=0;points=[];autosize=1;strokeColor=none;fillColor=none;" parent="1" vertex="1">
          <mxGeometry x="470" y="-420" width="40" height="30" as="geometry" />
        </mxCell>
        <mxCell id="NGFAzXa_t9kIVIbVqIeF-12" value="YES" style="text;html=1;align=center;verticalAlign=middle;resizable=0;points=[];autosize=1;strokeColor=none;fillColor=none;" parent="1" vertex="1">
          <mxGeometry x="405" y="-450" width="50" height="30" as="geometry" />
        </mxCell>
        <mxCell id="NGFAzXa_t9kIVIbVqIeF-13" value="아직 후원할 수 있는 게시물이&amp;nbsp;&lt;div&gt;없습니다.&lt;/div&gt;" style="rounded=1;whiteSpace=wrap;html=1;align=center;" parent="1" vertex="1">
          <mxGeometry x="484.5" y="-250" width="170" height="60" as="geometry" />
        </mxCell>
        <mxCell id="NGFAzXa_t9kIVIbVqIeF-19" style="edgeStyle=orthogonalEdgeStyle;rounded=0;orthogonalLoop=1;jettySize=auto;html=1;entryX=0;entryY=0.5;entryDx=0;entryDy=0;" parent="1" target="NGFAzXa_t9kIVIbVqIeF-18" edge="1">
          <mxGeometry relative="1" as="geometry">
            <mxPoint x="670" y="-680" as="sourcePoint" />
          </mxGeometry>
        </mxCell>
        <mxCell id="NGFAzXa_t9kIVIbVqIeF-30" style="edgeStyle=orthogonalEdgeStyle;rounded=0;orthogonalLoop=1;jettySize=auto;html=1;exitX=1;exitY=0.5;exitDx=0;exitDy=0;entryX=0;entryY=0.5;entryDx=0;entryDy=0;" parent="1" source="NGFAzXa_t9kIVIbVqIeF-18" target="NGFAzXa_t9kIVIbVqIeF-29" edge="1">
          <mxGeometry relative="1" as="geometry" />
        </mxCell>
        <mxCell id="NGFAzXa_t9kIVIbVqIeF-37" style="edgeStyle=orthogonalEdgeStyle;rounded=0;orthogonalLoop=1;jettySize=auto;html=1;entryX=0.5;entryY=0;entryDx=0;entryDy=0;" parent="1" source="NGFAzXa_t9kIVIbVqIeF-18" edge="1">
          <mxGeometry relative="1" as="geometry">
            <mxPoint x="610" y="-710" as="targetPoint" />
            <Array as="points">
              <mxPoint x="840" y="-840" />
              <mxPoint x="610" y="-840" />
            </Array>
          </mxGeometry>
        </mxCell>
        <mxCell id="NGFAzXa_t9kIVIbVqIeF-18" value="결제 진행 유무" style="rhombus;whiteSpace=wrap;html=1;" parent="1" vertex="1">
          <mxGeometry x="780" y="-720" width="120" height="80" as="geometry" />
        </mxCell>
        <mxCell id="NGFAzXa_t9kIVIbVqIeF-24" value="YES" style="text;html=1;align=center;verticalAlign=middle;resizable=0;points=[];autosize=1;strokeColor=none;fillColor=none;" parent="1" vertex="1">
          <mxGeometry x="450" y="-722" width="50" height="30" as="geometry" />
        </mxCell>
        <mxCell id="NGFAzXa_t9kIVIbVqIeF-26" value="NO" style="text;html=1;align=center;verticalAlign=middle;resizable=0;points=[];autosize=1;strokeColor=none;fillColor=none;" parent="1" vertex="1">
          <mxGeometry x="320" y="-720" width="40" height="30" as="geometry" />
        </mxCell>
        <mxCell id="NGFAzXa_t9kIVIbVqIeF-27" value="YES" style="text;html=1;align=center;verticalAlign=middle;resizable=0;points=[];autosize=1;strokeColor=none;fillColor=none;" parent="1" vertex="1">
          <mxGeometry x="880" y="-710" width="50" height="30" as="geometry" />
        </mxCell>
        <mxCell id="NGFAzXa_t9kIVIbVqIeF-28" value="NO" style="text;html=1;align=center;verticalAlign=middle;resizable=0;points=[];autosize=1;strokeColor=none;fillColor=none;" parent="1" vertex="1">
          <mxGeometry x="800" y="-750" width="40" height="30" as="geometry" />
        </mxCell>
        <mxCell id="6q0UX5Ta63x_VfpKH0MY-24" style="edgeStyle=orthogonalEdgeStyle;rounded=0;orthogonalLoop=1;jettySize=auto;html=1;" edge="1" parent="1" source="NGFAzXa_t9kIVIbVqIeF-29">
          <mxGeometry relative="1" as="geometry">
            <mxPoint x="1240" y="-680" as="targetPoint" />
          </mxGeometry>
        </mxCell>
        <mxCell id="NGFAzXa_t9kIVIbVqIeF-29" value="결제 정보 입력" style="shape=parallelogram;perimeter=parallelogramPerimeter;whiteSpace=wrap;html=1;fixedSize=1;" parent="1" vertex="1">
          <mxGeometry x="1000" y="-710" width="120" height="60" as="geometry" />
        </mxCell>
        <mxCell id="6q0UX5Ta63x_VfpKH0MY-25" style="edgeStyle=orthogonalEdgeStyle;rounded=0;orthogonalLoop=1;jettySize=auto;html=1;" edge="1" parent="1" source="NGFAzXa_t9kIVIbVqIeF-31">
          <mxGeometry relative="1" as="geometry">
            <mxPoint x="1480" y="-670" as="targetPoint" />
          </mxGeometry>
        </mxCell>
        <mxCell id="NGFAzXa_t9kIVIbVqIeF-31" value="결제 완료 문구" style="shape=document;whiteSpace=wrap;html=1;boundedLbl=1;" parent="1" vertex="1">
          <mxGeometry x="1241" y="-710" width="120" height="80" as="geometry" />
        </mxCell>
        <mxCell id="NGFAzXa_t9kIVIbVqIeF-35" value="결제 수단을 등록하셔야&lt;div&gt;결제가 진행됩니다.&lt;/div&gt;" style="rounded=1;whiteSpace=wrap;html=1;align=center;" parent="1" vertex="1">
          <mxGeometry x="640" y="-880" width="170" height="60" as="geometry" />
        </mxCell>
        <mxCell id="NGFAzXa_t9kIVIbVqIeF-50" style="edgeStyle=orthogonalEdgeStyle;rounded=0;orthogonalLoop=1;jettySize=auto;html=1;entryX=1;entryY=0.5;entryDx=0;entryDy=0;" parent="1" source="NGFAzXa_t9kIVIbVqIeF-40" edge="1">
          <mxGeometry relative="1" as="geometry">
            <mxPoint x="470" y="-80" as="targetPoint" />
          </mxGeometry>
        </mxCell>
        <mxCell id="NGFAzXa_t9kIVIbVqIeF-51" style="edgeStyle=orthogonalEdgeStyle;rounded=0;orthogonalLoop=1;jettySize=auto;html=1;entryX=0.25;entryY=0;entryDx=0;entryDy=0;" parent="1" source="NGFAzXa_t9kIVIbVqIeF-40" edge="1">
          <mxGeometry relative="1" as="geometry">
            <mxPoint x="550" y="20" as="targetPoint" />
            <Array as="points">
              <mxPoint x="550" y="-50" />
            </Array>
          </mxGeometry>
        </mxCell>
        <mxCell id="NGFAzXa_t9kIVIbVqIeF-40" value="펀딩 등록 여부" style="rhombus;whiteSpace=wrap;html=1;" parent="1" vertex="1">
          <mxGeometry x="1590" y="-120" width="120" height="80" as="geometry" />
        </mxCell>
        <mxCell id="NGFAzXa_t9kIVIbVqIeF-52" value="YES" style="text;html=1;align=center;verticalAlign=middle;resizable=0;points=[];autosize=1;strokeColor=none;fillColor=none;" parent="1" vertex="1">
          <mxGeometry x="1534.5" y="-110" width="50" height="30" as="geometry" />
        </mxCell>
        <mxCell id="NGFAzXa_t9kIVIbVqIeF-53" value="NO" style="text;html=1;align=center;verticalAlign=middle;resizable=0;points=[];autosize=1;strokeColor=none;fillColor=none;" parent="1" vertex="1">
          <mxGeometry x="1563" y="-73" width="40" height="30" as="geometry" />
        </mxCell>
        <mxCell id="W1404mS3XETOB29syWGj-1" value="메인 페이지" style="rounded=1;whiteSpace=wrap;html=1;arcSize=50;" vertex="1" parent="1">
          <mxGeometry x="353" y="20" width="120" height="60" as="geometry" />
        </mxCell>
        <mxCell id="6q0UX5Ta63x_VfpKH0MY-16" style="edgeStyle=orthogonalEdgeStyle;rounded=0;orthogonalLoop=1;jettySize=auto;html=1;entryX=0;entryY=0.5;entryDx=0;entryDy=0;" edge="1" parent="1" source="W1404mS3XETOB29syWGj-2" target="6q0UX5Ta63x_VfpKH0MY-15">
          <mxGeometry relative="1" as="geometry" />
        </mxCell>
        <mxCell id="W1404mS3XETOB29syWGj-2" value="로그인&amp;nbsp;&lt;span style=&quot;background-color: transparent; color: light-dark(rgb(0, 0, 0), rgb(255, 255, 255));&quot;&gt;페이지&lt;/span&gt;" style="rounded=1;whiteSpace=wrap;html=1;arcSize=50;" vertex="1" parent="1">
          <mxGeometry x="350" y="470" width="120" height="60" as="geometry" />
        </mxCell>
        <mxCell id="W1404mS3XETOB29syWGj-3" value="프로젝트" style="rounded=1;whiteSpace=wrap;html=1;arcSize=50;" vertex="1" parent="1">
          <mxGeometry x="510" y="20" width="120" height="60" as="geometry" />
        </mxCell>
        <mxCell id="W1404mS3XETOB29syWGj-4" value="커뮤니티 페이지" style="rounded=1;whiteSpace=wrap;html=1;arcSize=50;" vertex="1" parent="1">
          <mxGeometry x="80" y="20" width="120" height="60" as="geometry" />
        </mxCell>
        <mxCell id="6q0UX5Ta63x_VfpKH0MY-1" value="팀원 모집 글&amp;nbsp;&lt;div&gt;작성 완료&lt;/div&gt;" style="rounded=1;whiteSpace=wrap;html=1;arcSize=50;" vertex="1" parent="1">
          <mxGeometry x="80" y="-700" width="120" height="60" as="geometry" />
        </mxCell>
        <mxCell id="6q0UX5Ta63x_VfpKH0MY-2" value="로그인 완료" style="rounded=1;whiteSpace=wrap;html=1;arcSize=50;" vertex="1" parent="1">
          <mxGeometry x="360" y="1000" width="120" height="60" as="geometry" />
        </mxCell>
        <mxCell id="6q0UX5Ta63x_VfpKH0MY-4" style="edgeStyle=orthogonalEdgeStyle;rounded=0;orthogonalLoop=1;jettySize=auto;html=1;" edge="1" parent="1" source="6q0UX5Ta63x_VfpKH0MY-3" target="6q0UX5Ta63x_VfpKH0MY-2">
          <mxGeometry relative="1" as="geometry" />
        </mxCell>
        <mxCell id="6q0UX5Ta63x_VfpKH0MY-3" value="환영 문구" style="shape=document;whiteSpace=wrap;html=1;boundedLbl=1;" vertex="1" parent="1">
          <mxGeometry x="360" y="810" width="120" height="80" as="geometry" />
        </mxCell>
        <mxCell id="6q0UX5Ta63x_VfpKH0MY-5" value="회원가입 완료" style="rounded=1;whiteSpace=wrap;html=1;arcSize=50;" vertex="1" parent="1">
          <mxGeometry x="1080" y="570" width="120" height="60" as="geometry" />
        </mxCell>
        <mxCell id="6q0UX5Ta63x_VfpKH0MY-7" value="전문가 등록 완료" style="rounded=1;whiteSpace=wrap;html=1;arcSize=50;" vertex="1" parent="1">
          <mxGeometry x="1310" y="600" width="120" height="60" as="geometry" />
        </mxCell>
        <mxCell id="6q0UX5Ta63x_VfpKH0MY-11" style="edgeStyle=orthogonalEdgeStyle;rounded=0;orthogonalLoop=1;jettySize=auto;html=1;entryX=0;entryY=0.5;entryDx=0;entryDy=0;" edge="1" parent="1" source="6q0UX5Ta63x_VfpKH0MY-9" target="EGz7P1Q1aY1t3WAdPLNM-38">
          <mxGeometry relative="1" as="geometry">
            <Array as="points">
              <mxPoint x="1750" y="50" />
              <mxPoint x="1750" y="50" />
            </Array>
          </mxGeometry>
        </mxCell>
        <mxCell id="6q0UX5Ta63x_VfpKH0MY-13" style="edgeStyle=orthogonalEdgeStyle;rounded=0;orthogonalLoop=1;jettySize=auto;html=1;entryX=0.5;entryY=1;entryDx=0;entryDy=0;" edge="1" parent="1" source="6q0UX5Ta63x_VfpKH0MY-9" target="NGFAzXa_t9kIVIbVqIeF-40">
          <mxGeometry relative="1" as="geometry" />
        </mxCell>
        <mxCell id="6q0UX5Ta63x_VfpKH0MY-9" value="프로젝트 등록 완료" style="rounded=1;whiteSpace=wrap;html=1;arcSize=50;" vertex="1" parent="1">
          <mxGeometry x="1590" y="10" width="120" height="60" as="geometry" />
        </mxCell>
        <mxCell id="6q0UX5Ta63x_VfpKH0MY-10" style="edgeStyle=orthogonalEdgeStyle;rounded=0;orthogonalLoop=1;jettySize=auto;html=1;entryX=0.03;entryY=0.661;entryDx=0;entryDy=0;entryPerimeter=0;" edge="1" parent="1" source="N206_3mTJXvAUxSQ0Mpn-29" target="6q0UX5Ta63x_VfpKH0MY-9">
          <mxGeometry relative="1" as="geometry" />
        </mxCell>
        <mxCell id="6q0UX5Ta63x_VfpKH0MY-14" value="전문가 등록 페이지" style="rounded=1;whiteSpace=wrap;html=1;arcSize=50;" vertex="1" parent="1">
          <mxGeometry x="900" y="280" width="120" height="60" as="geometry" />
        </mxCell>
        <mxCell id="6q0UX5Ta63x_VfpKH0MY-17" style="edgeStyle=orthogonalEdgeStyle;rounded=0;orthogonalLoop=1;jettySize=auto;html=1;entryX=0;entryY=0.5;entryDx=0;entryDy=0;" edge="1" parent="1" source="6q0UX5Ta63x_VfpKH0MY-15" target="EGz7P1Q1aY1t3WAdPLNM-15">
          <mxGeometry relative="1" as="geometry" />
        </mxCell>
        <mxCell id="6q0UX5Ta63x_VfpKH0MY-15" value="회원가입 페이지" style="rounded=1;whiteSpace=wrap;html=1;arcSize=50;" vertex="1" parent="1">
          <mxGeometry x="560" y="470" width="120" height="60" as="geometry" />
        </mxCell>
        <mxCell id="6q0UX5Ta63x_VfpKH0MY-18" value="글 작성 완료" style="rounded=1;whiteSpace=wrap;html=1;arcSize=50;" vertex="1" parent="1">
          <mxGeometry x="-60" y="780" width="120" height="60" as="geometry" />
        </mxCell>
        <mxCell id="6q0UX5Ta63x_VfpKH0MY-20" value="후원 페이지" style="rounded=1;whiteSpace=wrap;html=1;arcSize=50;" vertex="1" parent="1">
          <mxGeometry x="353" y="-560" width="120" height="60" as="geometry" />
        </mxCell>
        <mxCell id="6q0UX5Ta63x_VfpKH0MY-21" value="결제 페이지" style="rounded=1;whiteSpace=wrap;html=1;arcSize=50;" vertex="1" parent="1">
          <mxGeometry x="550" y="-710" width="120" height="60" as="geometry" />
        </mxCell>
        <mxCell id="6q0UX5Ta63x_VfpKH0MY-22" value="후원 완료" style="rounded=1;whiteSpace=wrap;html=1;arcSize=50;" vertex="1" parent="1">
          <mxGeometry x="1483" y="-710" width="120" height="60" as="geometry" />
        </mxCell>
      </root>
    </mxGraphModel>
  </diagram>
  <diagram id="6zdAmtqEzbkF6h_H-J-p" name="페이지-2">
    <mxGraphModel dx="984" dy="630" grid="1" gridSize="10" guides="1" tooltips="1" connect="1" arrows="1" fold="1" page="1" pageScale="1" pageWidth="827" pageHeight="1169" math="0" shadow="0">
      <root>
        <mxCell id="0" />
        <mxCell id="1" parent="0" />
      </root>
    </mxGraphModel>
  </diagram>
</mxfile>
